<?xml version="1.0" encoding="utf-8"?>
<!-- Generator: Adobe Illustrator 22.0.0, SVG Export Plug-In . SVG Version: 6.00 Build 0)  -->
<svg version="1.1" id="Layer_1" xmlns="http://www.w3.org/2000/svg" xmlns:xlink="http://www.w3.org/1999/xlink" x="0px" y="0px"
	 viewBox="0 0 329.7 116.6" style="enable-background:new 0 0 329.7 116.6;" xml:space="preserve">
<style type="text/css">
	.st0{fill:#FFFFFF;}
	.st1{fill:#65A8C5;}
</style>
<path d="M-6.1,0h336.7v116.7H-6.1L-6.1,0z"/>
<path id="Port" class="st0" d="M120.7,42.5c-3,0.4-5.8,2.8-7.1,4.3v-3.6h-9.4v38.2h10.1V69.6c0-6.5,0.3-10.8,0.8-12.8
	c0.6-2,1.3-3.4,2.3-4.2c1-0.8,2.2-1.2,3.6-1.2c1.5,0,3,0.5,4.7,1.7l3.1-8.8c-2.1-1.3-4.3-1.9-6.6-1.9
	C121.7,42.3,121.2,42.4,120.7,42.5 M79.5,42.3c-3.7,0-7.1,0.8-10.1,2.5c-3,1.6-5.4,4-7,7.2c-1.7,3.1-2.5,6.4-2.5,9.7
	c0,4.4,0.8,8.1,2.5,11.2c1.7,3.1,4.1,5.4,7.2,7c3.2,1.6,6.5,2.4,10,2.4c5.7,0,10.3-1.9,14.1-5.7c3.7-3.8,5.6-8.6,5.6-14.4
	c0-5.7-1.8-10.5-5.5-14.2C90,44.2,85.2,42.3,79.5,42.3 M86.1,71c-1.8,2-4,3-6.6,3s-4.8-1-6.6-3c-1.8-2-2.7-4.9-2.7-8.7
	s0.9-6.7,2.7-8.7c1.8-2,4-3,6.6-3s4.8,1,6.6,3c1.8,2,2.7,4.9,2.7,8.6C88.8,66,87.9,69,86.1,71 M47,29.5c-2-0.5-6.2-0.8-12.6-0.8
	H17.3v52.7H28V61.5h6.9c4.8,0,8.5-0.3,11-0.8c1.9-0.4,3.7-1.2,5.5-2.5c1.8-1.3,3.3-3,4.5-5.2c1.2-2.2,1.8-4.9,1.8-8.2
	c0-4.2-1-7.6-3.1-10.3C52.6,32,50,30.3,47,29.5 M45.5,49.1c-0.8,1.2-1.9,2-3.3,2.6s-4.2,0.8-8.4,0.8H28V37.6h5.1
	c3.8,0,6.4,0.1,7.7,0.4c1.7,0.3,3.1,1.1,4.3,2.3c1.1,1.2,1.7,2.8,1.7,4.7C46.7,46.6,46.3,48,45.5,49.1"/>
<g id="hub_1_">
	<path id="bkgrd" class="st1" d="M306.7,16.9H186.5c-3.7,0.4-5.8,2.7-6.2,6.9v69.1c0.4,4.2,2.4,6.4,6.1,6.9h120.3
		c3.7-0.4,5.8-2.7,6.1-6.9V23.8C312.5,19.6,310.5,17.3,306.7,16.9"/>
	<path id="hub" d="M300.7,49.1c-2-2.3-4.8-3.7-7.8-4.4c-0.9-0.2-1.8-0.4-2.9-0.4c-3.9-0.4-9,1.2-11.4,3.2l0.6-16.2h-9.6v50.1h8.9
		v-2.8c2.1,1.7,5.4,3.6,10.4,3.6c0.2,0,0.4,0,0.6,0c0.1,0,0.3,0,0.4,0c4.2,0,7.8-1.7,10.7-5c2.9-3.3,4.4-8.1,4.4-14.3
		C305.1,56.9,303.6,52.3,300.7,49.1 M293,71.9c-1.5,1.8-3.3,2.7-5.4,2.7c-2.8,0-5-1.3-6.6-3.8c-1.2-1.8-1.8-4.6-1.8-8.3
		c0-3.6,0.8-6.4,2.3-8.1c1.5-1.8,3.4-2.7,5.7-2.7c2.3,0,4.3,0.9,5.8,2.7c1.5,1.8,2.3,4.8,2.3,9C295.2,67.2,294.5,70.1,293,71.9
		 M254.2,60.4c0,5.2-0.2,8.5-0.7,9.8c-0.5,1.3-1.4,2.4-2.7,3.3c-1.3,0.9-2.8,1.3-4.4,1.3c-1.4,0-2.6-0.3-3.6-1
		c-0.9-0.7-1.6-1.6-1.9-2.7c-0.4-1.1-0.5-4.3-0.5-9.4V45.1h-9.6v23c0,3.4,0.4,6.1,1.3,8c0.9,1.9,2.3,3.4,4.2,4.5
		c1.9,1.1,4.1,1.6,6.6,1.6c0.4,0,0.7,0,1.1,0c0,0,0,0,0,0c6.1-0.2,9.3-2.9,10.9-4.8v4h8.9V45.1h-9.6L254.2,60.4z M222.9,48.7
		c-0.9-1.3-2.2-2.3-4-3.1c-1.6-0.7-3.4-1.1-5.3-1.2c0,0-0.1,0-0.1,0c-4-0.2-9.2,1-11.6,3.3V31.3h-9.6v50.1h9.6V63.2
		c0-3.1,0.3-5.4,0.9-6.9c0.6-1.6,1.5-2.7,2.7-3.5c1.3-0.8,2.7-1.2,4.3-1.2c1.4,0,2.5,0.3,3.5,0.9c0.9,0.6,1.6,1.4,1.9,2.4
		c0.4,1,0.5,3.4,0.5,7.2v19.2h9.6V60.1c0-3.3-0.2-5.7-0.5-7.2C224.4,51.3,223.8,49.9,222.9,48.7"/>
</g>
<g>
	<path class="st0" d="M155.2,42.5v8.3h-6.7v15.8c0,3.2,0.1,5.1,0.2,5.6c0.1,0.5,0.4,1,0.9,1.3c0.5,0.3,1,0.5,1.7,0.5
		c0.9,0,2.2-0.3,4-1l0.8,8c-2.3,1-4.9,1.5-7.8,1.5c-1.8,0-3.4-0.3-4.8-0.9c-1.4-0.6-2.5-1.4-3.1-2.4c-0.7-1-1.1-2.3-1.4-4
		c-0.2-1.2-0.3-3.6-0.3-7.3V50.8h-4.5v-8.3h4.5v-7.8l9.9-6v13.8H155.2z"/>
</g>
</svg>
