<svg xmlns="http://www.w3.org/2000/svg" xmlns:xlink="http://www.w3.org/1999/xlink" viewBox="7960 0 1920 1080"><defs><style>.a{clip-path:url(#b);}.b,.c,.e,.j,.m{fill:#95989a;}.b{font-size:75px;}.b,.c,.e,.h,.j,.l{font-family:SegoeUI, Segoe UI;}.c{font-size:50px;}.c,.d,.e,.f{opacity:0.5;}.d,.h,.i,.p{fill:#fff;}.d,.k{stroke:#95989a;}.e,.h,.l,.m{font-size:30px;}.g{fill:#999;stroke:#95b0c2;}.i{stroke:#000;}.j{font-size:40px;}.k{fill:#7e7e7e;}.l{fill:#fbfdff;}.m{font-family:SegoeUI-Bold, Segoe UI;font-weight:700;}.n{stroke:none;}.o{fill:none;}</style><clipPath id="b"><rect x="7960" width="1920" height="1080"/></clipPath></defs><g id="a" class="a"><rect class="p" x="7960" width="1920" height="1080"/><g transform="translate(7893 -205)"><text class="b" transform="translate(1027 286)"><tspan x="-164.429" y="0">PORT hub</tspan></text></g><text class="c" transform="translate(8106 225)"><tspan x="0" y="0">Oslo Template</tspan></text><g class="d" transform="translate(8419 353)"><rect class="n" width="541" height="77"/><rect class="o" x="0.5" y="0.5" width="540" height="76"/></g><text class="e" transform="translate(8266 403)"><tspan x="0" y="0">Name:</tspan></text><g class="d" transform="translate(8419 493)"><rect class="n" width="541" height="77"/><rect class="o" x="0.5" y="0.5" width="540" height="76"/></g><text class="e" transform="translate(8303 543)"><tspan x="0" y="0">Bio:</tspan></text><g class="d" transform="translate(8419 623)"><rect class="n" width="541" height="77"/><rect class="o" x="0.5" y="0.5" width="540" height="76"/></g><text class="e" transform="translate(8243 673)"><tspan x="0" y="0">Contact:</tspan></text><g class="d" transform="translate(8419 763)"><rect class="n" width="541" height="77"/><rect class="o" x="0.5" y="0.5" width="540" height="76"/></g><text class="e" transform="translate(8306 813)"><tspan x="0" y="0">Etc:</tspan></text><g class="f" transform="translate(7900)"><g transform="translate(270)"><g class="g" transform="translate(356 943)"><rect class="n" width="258" height="79"/><rect class="o" x="0.5" y="0.5" width="257" height="78"/></g><text class="h" transform="translate(485 995)"><tspan x="-44.802" y="0">Github</tspan></text></g><g transform="translate(800)"><g class="g" transform="translate(356 943)"><rect class="n" width="258" height="79"/><rect class="o" x="0.5" y="0.5" width="257" height="78"/></g><text class="h" transform="translate(485 995)"><tspan x="-94.065" y="0">Download File</tspan></text></g></g><g class="i" transform="translate(8471 335)"><rect class="n" width="898" height="410"/><rect class="o" x="0.5" y="0.5" width="897" height="409"/></g><text class="j" transform="translate(8815 493)"><tspan x="0" y="0">CONGRATS!</tspan></text><text class="j" transform="translate(8689 551)"><tspan x="0" y="0">Your site has been created</tspan></text><g class="k" transform="translate(8573 621)"><rect class="n" width="216" height="81"/><rect class="o" x="0.5" y="0.5" width="215" height="80"/></g><g transform="translate(7975 -20)"><text class="l" transform="translate(601 691)"><tspan x="0" y="0">Create Another</tspan></text><g class="k" transform="translate(863 641)"><rect class="n" width="216" height="81"/><rect class="o" x="0.5" y="0.5" width="215" height="80"/></g><text class="l" transform="translate(872 691)"><tspan x="0" y="0">Create Resume</tspan></text><g class="k" transform="translate(1123 641)"><rect class="n" width="216" height="81"/><rect class="o" x="0.5" y="0.5" width="215" height="80"/></g><text class="l" transform="translate(1201 691)"><tspan x="0" y="0">Save</tspan></text></g><text class="m" transform="translate(9335 371)"><tspan x="0" y="0">X</tspan></text></g></svg>