<svg xmlns="http://www.w3.org/2000/svg" xmlns:xlink="http://www.w3.org/1999/xlink" viewBox="5970 1370 1920 1080"><defs><style>.a{clip-path:url(#b);}.b,.c,.e{fill:#95989a;}.b{font-size:75px;}.b,.c,.e,.g{font-family:SegoeUI, Segoe UI;}.c{font-size:50px;}.d,.g,.j{fill:#fff;}.d{stroke:#95989a;}.e,.g{font-size:30px;}.f{fill:#999;stroke:#95b0c2;}.h{stroke:none;}.i{fill:none;}</style><clipPath id="b"><rect x="5970" y="1370" width="1920" height="1080"/></clipPath></defs><g id="a" class="a"><rect class="j" x="5970" y="1370" width="1920" height="1080"/><g transform="translate(5903 1165)"><text class="b" transform="translate(1027 286)"><tspan x="-164.429" y="0">PORT hub</tspan></text></g><text class="c" transform="translate(6116 1595)"><tspan x="0" y="0">Africa Resume Template</tspan></text><g class="d" transform="translate(6379 1723)"><rect class="h" width="541" height="77"/><rect class="i" x="0.5" y="0.5" width="540" height="76"/></g><text class="e" transform="translate(6226 1773)"><tspan x="0" y="0">Name:</tspan></text><g class="d" transform="translate(6379 1863)"><rect class="h" width="541" height="282"/><rect class="i" x="0.5" y="0.5" width="540" height="281"/></g><text class="e" transform="translate(6263 1913)"><tspan x="0" y="0">Bio:</tspan></text><g class="d" transform="translate(7175 1723)"><rect class="h" width="541" height="77"/><rect class="i" x="0.5" y="0.5" width="540" height="76"/></g><text class="e" transform="translate(6999 1773)"><tspan x="0" y="0">Contact:</tspan></text><g class="d" transform="translate(7175 1843)"><rect class="h" width="541" height="77"/><rect class="i" x="0.5" y="0.5" width="540" height="76"/></g><text class="e" transform="translate(7062 1893)"><tspan x="0" y="0">Etc:</tspan></text><g transform="translate(5845 1370)"><g transform="translate(600)"><g class="f" transform="translate(356 943)"><rect class="h" width="258" height="79"/><rect class="i" x="0.5" y="0.5" width="257" height="78"/></g><text class="g" transform="translate(485 995)"><tspan x="-97.874" y="0">Download PDF</tspan></text></g></g><g class="d" transform="translate(7175 1963)"><rect class="h" width="541" height="77"/><rect class="i" x="0.5" y="0.5" width="540" height="76"/></g><text class="e" transform="translate(7062 2013)"><tspan x="0" y="0">Etc:</tspan></text><g class="d" transform="translate(7175 2073)"><rect class="h" width="541" height="77"/><rect class="i" x="0.5" y="0.5" width="540" height="76"/></g><text class="e" transform="translate(7062 2123)"><tspan x="0" y="0">Etc:</tspan></text></g></svg>