<svg xmlns="http://www.w3.org/2000/svg" xmlns:xlink="http://www.w3.org/1999/xlink" viewBox="3980 1370 1920 1080"><defs><style>.a{clip-path:url(#b);}.b,.e,.g,.h,.i{fill:#95989a;}.b{font-size:75px;}.b,.e,.g,.i{font-family:SegoeUI, Segoe UI;}.c{opacity:0.51;}.d,.f,.l{fill:#fff;}.d{stroke:#95989a;}.e{font-size:20px;}.f{stroke:#000;}.g{font-size:50px;}.h,.i{font-size:30px;}.h{font-family:SegoeUI-Bold, Segoe UI;font-weight:700;}.j{stroke:none;}.k{fill:none;}</style><clipPath id="b"><rect x="3980" y="1370" width="1920" height="1080"/></clipPath></defs><g id="a" class="a"><rect class="l" x="3980" y="1370" width="1920" height="1080"/><g transform="translate(3913 1165)"><text class="b" transform="translate(1027 286)"><tspan x="-164.429" y="0">PORT hub</tspan></text></g><g class="c" transform="translate(3980 1370)"><g transform="translate(-472 -311)"><g class="d" transform="translate(665 540)"><rect class="j" width="295" height="296.4"/><rect class="k" x="0.5" y="0.5" width="294" height="295.4"/></g><g class="d" transform="translate(1085 540)"><rect class="j" width="304" height="296.4"/><rect class="k" x="0.5" y="0.5" width="303" height="295.4"/></g><text class="e" transform="translate(776 694.329)"><tspan x="0" y="0">CARD</tspan></text><text class="e" transform="translate(1212 691.329)"><tspan x="0" y="0">CARD</tspan></text></g><g transform="translate(381 -311)"><g class="d" transform="translate(665 540)"><rect class="j" width="295" height="296.4"/><rect class="k" x="0.5" y="0.5" width="294" height="295.4"/></g><g class="d" transform="translate(1085 540)"><rect class="j" width="304" height="296.4"/><rect class="k" x="0.5" y="0.5" width="303" height="295.4"/></g><text class="e" transform="translate(773 694.329)"><tspan x="0" y="0">CARD</tspan></text><text class="e" transform="translate(1209 691.329)"><tspan x="0" y="0">CARD</tspan></text></g></g><g class="c" transform="translate(3980 1740)"><g transform="translate(-472 -311)"><g class="d" transform="translate(665 540)"><rect class="j" width="295" height="296.4"/><rect class="k" x="0.5" y="0.5" width="294" height="295.4"/></g><g class="d" transform="translate(1085 540)"><rect class="j" width="304" height="296.4"/><rect class="k" x="0.5" y="0.5" width="303" height="295.4"/></g><text class="e" transform="translate(776 694.329)"><tspan x="0" y="0">CARD</tspan></text><text class="e" transform="translate(1212 691.329)"><tspan x="0" y="0">CARD</tspan></text></g><g transform="translate(381 -311)"><g class="d" transform="translate(665 540)"><rect class="j" width="295" height="296.4"/><rect class="k" x="0.5" y="0.5" width="294" height="295.4"/></g><g class="d" transform="translate(1085 540)"><rect class="j" width="304" height="296.4"/><rect class="k" x="0.5" y="0.5" width="303" height="295.4"/></g><text class="e" transform="translate(773 694.329)"><tspan x="0" y="0">CARD</tspan></text><text class="e" transform="translate(1209 691.329)"><tspan x="0" y="0">CARD</tspan></text></g></g><g class="c" transform="translate(3980 2110)"><g transform="translate(-472 -311)"><g class="d" transform="translate(665 540)"><rect class="j" width="295" height="296.4"/><rect class="k" x="0.5" y="0.5" width="294" height="295.4"/></g><g class="d" transform="translate(1085 540)"><rect class="j" width="304" height="296.4"/><rect class="k" x="0.5" y="0.5" width="303" height="295.4"/></g><text class="e" transform="translate(776 694.329)"><tspan x="0" y="0">CARD</tspan></text><text class="e" transform="translate(1212 691.329)"><tspan x="0" y="0">CARD</tspan></text></g><g transform="translate(381 -311)"><g class="d" transform="translate(665 540)"><rect class="j" width="295" height="296.4"/><rect class="k" x="0.5" y="0.5" width="294" height="295.4"/></g><g class="d" transform="translate(1085 540)"><rect class="j" width="304" height="296.4"/><rect class="k" x="0.5" y="0.5" width="303" height="295.4"/></g><text class="e" transform="translate(773 694.329)"><tspan x="0" y="0">CARD</tspan></text><text class="e" transform="translate(1209 691.329)"><tspan x="0" y="0">CARD</tspan></text></g></g><g class="f" transform="translate(4248 1502)"><rect class="j" width="1384" height="1230"/><rect class="k" x="0.5" y="0.5" width="1383" height="1229"/></g><text class="g" transform="translate(4752 1710)"><tspan x="0" y="0">AFRICA Template</tspan></text><text class="h" transform="translate(5593 1534)"><tspan x="0" y="0">X</tspan></text><text class="i" transform="translate(4840 1780)"><tspan x="0" y="0">PDF in a Modal</tspan></text></g></svg>