<svg xmlns="http://www.w3.org/2000/svg" xmlns:xlink="http://www.w3.org/1999/xlink" viewBox="1990 0 1920 1080"><defs><style>.a{clip-path:url(#b);}.b,.d{fill:#95989a;font-family:SegoeUI, Segoe UI;}.b{font-size:75px;}.c,.g{fill:#fff;}.c{stroke:#95989a;}.d{font-size:20px;}.e{stroke:none;}.f{fill:none;}</style><clipPath id="b"><rect x="1990" width="1920" height="1080"/></clipPath></defs><g id="a" class="a"><rect class="g" x="1990" width="1920" height="1080"/><g transform="translate(1923 -205)"><text class="b" transform="translate(1027 286)"><tspan x="-164.429" y="0">PORT hub</tspan></text></g><g transform="translate(1990)"><g transform="translate(-472 -311)"><g class="c" transform="translate(665 540)"><rect class="e" width="295" height="296.4"/><rect class="f" x="0.5" y="0.5" width="294" height="295.4"/></g><g class="c" transform="translate(1085 540)"><rect class="e" width="304" height="296.4"/><rect class="f" x="0.5" y="0.5" width="303" height="295.4"/></g><text class="d" transform="translate(776 694.329)"><tspan x="0" y="0">CARD</tspan></text><text class="d" transform="translate(1212 691.329)"><tspan x="0" y="0">CARD</tspan></text></g><g transform="translate(381 -311)"><g class="c" transform="translate(665 540)"><rect class="e" width="295" height="296.4"/><rect class="f" x="0.5" y="0.5" width="294" height="295.4"/></g><g class="c" transform="translate(1085 540)"><rect class="e" width="304" height="296.4"/><rect class="f" x="0.5" y="0.5" width="303" height="295.4"/></g><text class="d" transform="translate(773 694.329)"><tspan x="0" y="0">CARD</tspan></text><text class="d" transform="translate(1209 691.329)"><tspan x="0" y="0">CARD</tspan></text></g></g><g transform="translate(1990 370)"><g transform="translate(-472 -311)"><g class="c" transform="translate(665 540)"><rect class="e" width="295" height="296.4"/><rect class="f" x="0.5" y="0.5" width="294" height="295.4"/></g><g class="c" transform="translate(1085 540)"><rect class="e" width="304" height="296.4"/><rect class="f" x="0.5" y="0.5" width="303" height="295.4"/></g><text class="d" transform="translate(776 694.329)"><tspan x="0" y="0">CARD</tspan></text><text class="d" transform="translate(1212 691.329)"><tspan x="0" y="0">CARD</tspan></text></g><g transform="translate(381 -311)"><g class="c" transform="translate(665 540)"><rect class="e" width="295" height="296.4"/><rect class="f" x="0.5" y="0.5" width="294" height="295.4"/></g><g class="c" transform="translate(1085 540)"><rect class="e" width="304" height="296.4"/><rect class="f" x="0.5" y="0.5" width="303" height="295.4"/></g><text class="d" transform="translate(773 694.329)"><tspan x="0" y="0">CARD</tspan></text><text class="d" transform="translate(1209 691.329)"><tspan x="0" y="0">CARD</tspan></text></g></g><g transform="translate(1990 740)"><g transform="translate(-472 -311)"><g class="c" transform="translate(665 540)"><rect class="e" width="295" height="296.4"/><rect class="f" x="0.5" y="0.5" width="294" height="295.4"/></g><g class="c" transform="translate(1085 540)"><rect class="e" width="304" height="296.4"/><rect class="f" x="0.5" y="0.5" width="303" height="295.4"/></g><text class="d" transform="translate(776 694.329)"><tspan x="0" y="0">CARD</tspan></text><text class="d" transform="translate(1212 691.329)"><tspan x="0" y="0">CARD</tspan></text></g><g transform="translate(381 -311)"><g class="c" transform="translate(665 540)"><rect class="e" width="295" height="296.4"/><rect class="f" x="0.5" y="0.5" width="294" height="295.4"/></g><g class="c" transform="translate(1085 540)"><rect class="e" width="304" height="296.4"/><rect class="f" x="0.5" y="0.5" width="303" height="295.4"/></g><text class="d" transform="translate(773 694.329)"><tspan x="0" y="0">CARD</tspan></text><text class="d" transform="translate(1209 691.329)"><tspan x="0" y="0">CARD</tspan></text></g></g></g></svg>